# xmcd CD database file
#
# Track frame offsets:
#	150
#	24316
#	45958
#	71868
#	90185
#	105868
#	123605
#	144260
#	170020
#	182885
#	202410
#	228235
#	248584
#	271172
#	287020
#
# Disc length: 4132 seconds
#
# Revision: 0
# Processed by: cddbd v1.5.2PL0 Copyright (c) Steve Scherf et al.
# Submitted via: CDex 1.51
#
DISCID=c910220f
DTITLE=Various Artist - Upside n' Down Tight
DYEAR=2000
DGENRE=Blues
TTITLE0=Snooky Prior-I Heard The News
TTITLE1=Little Mack Simmons-Hooked On Your Love
TTITLE2=Mel Brown-Woman Wanted
TTITLE3=Johnny Laws-Bad, Bad Whiskey
TTITLE4=Morgan Davis-Reefer Smokin' Man
TTITLE5=Arelean Brown-I'm A Streaker Baby
TTITLE6=Little Mack Simmons-Revelation Blues
TTITLE7=Snooky Prior-I Learnt My Lesson Well
TTITLE8=Fenton Robinson-Cryin' The Blues
TTITLE9=Fathead-Blue Water
TTITLE10=Frueland Jackson-Titanic Blues
TTITLE11=Curley Bridges-Three O'clock Blues
TTITLE12=Mel Brown-I Want To Hold On To You, Baby
TTITLE13=Little Mack Simmons-Let Me Explain My Love
TTITLE14=Snooky Prior and Mel Brown-Do The Boogaloo
EXTD=YEAR: 2000
EXTT0=
EXTT1=
EXTT2=
EXTT3=
EXTT4=
EXTT5=
EXTT6=
EXTT7=
EXTT8=
EXTT9=
EXTT10=
EXTT11=
EXTT12=
EXTT13=
EXTT14=
PLAYORDER=
